REM GENRE Trance
REM DATE 1994
REM DISCID 7A0F7509
REM COMMENT "ExactAudioCopy v0.95b4"
PERFORMER "Juno Reactor"
TITLE "Transmissions"
FILE "Juno Reactor - Transmissions - 01 - High Energy Protons.wav" WAVE
  TRACK 01 AUDIO
    TITLE "High Energy Protons"
    PERFORMER "Juno Reactor"
    PREGAP 00:00:32
    INDEX 01 00:00:00
  TRACK 02 AUDIO
    TITLE "The Heavens"
    PERFORMER "Juno Reactor"
    INDEX 00 06:32:52
FILE "Juno Reactor - Transmissions - 02 - The Heavens.wav" WAVE
    INDEX 01 00:00:00
  TRACK 03 AUDIO
    TITLE "Luna-Tic"
    PERFORMER "Juno Reactor"
    INDEX 00 06:26:60
FILE "Juno Reactor - Transmissions - 03 - Luna-Tic.wav" WAVE
    INDEX 01 00:00:00
  TRACK 04 AUDIO
    TITLE "Contact"
    PERFORMER "Juno Reactor"
    INDEX 00 09:01:02
FILE "Juno Reactor - Transmissions - 04 - Contact.wav" WAVE
    INDEX 01 00:00:00
  TRACK 05 AUDIO
    TITLE "Acid Moon"
    PERFORMER "Juno Reactor"
    INDEX 00 05:53:17
FILE "Juno Reactor - Transmissions - 05 - Acid Moon.wav" WAVE
    INDEX 01 00:00:00
  TRACK 06 AUDIO
    TITLE "10,000 Miles"
    PERFORMER "Juno Reactor"
    INDEX 00 08:38:44
FILE "Juno Reactor - Transmissions - 06 - 10,000 Miles.wav" WAVE
    INDEX 01 00:00:00
  TRACK 07 AUDIO
    TITLE "Laughing Gas"
    PERFORMER "Juno Reactor"
    INDEX 00 05:55:10
FILE "Juno Reactor - Transmissions - 07 - Laughing Gas.wav" WAVE
    INDEX 01 00:00:00
  TRACK 08 AUDIO
    TITLE "Man to Ray"
    PERFORMER "Juno Reactor"
    INDEX 00 08:04:64
FILE "Juno Reactor - Transmissions - 08 - Man to Ray.wav" WAVE
    INDEX 01 00:00:00
  TRACK 09 AUDIO
    TITLE "Landing"
    PERFORMER "Juno Reactor"
    INDEX 00 06:43:32
FILE "Juno Reactor - Transmissions - 09 - Landing.wav" WAVE
    INDEX 01 00:00:00
